<svg id="Layer_1" data-name="Layer 1" xmlns="http://www.w3.org/2000/svg" viewBox="0 0 505 72.6"><defs><style>.cls-1{fill:#f89b22;}.cls-2{fill:#29bee5;}.cls-3{fill:#fff;}.cls-4{fill:none;}</style></defs><title>Group_Greeting_Logo</title><path class="cls-1" d="M495.53,47.77a9.51,9.51,0,0,1-7.22,3.08,9.3,9.3,0,0,1-3.9-.81,10.25,10.25,0,0,1-5.23-5.8A11.66,11.66,0,0,1,478.4,40a12.26,12.26,0,0,1,.73-4.26,10.84,10.84,0,0,1,2.11-3.53,9.86,9.86,0,0,1,3.16-2.35,9.4,9.4,0,0,1,3.93-.81,9.23,9.23,0,0,1,7.22,3.21,11.38,11.38,0,0,1,2.11,3.49,11.69,11.69,0,0,1,.77,4.26,12.16,12.16,0,0,1-.73,4.3,12.3,12.3,0,0,1-2.19,3.49m9.41-21.83a2.82,2.82,0,0,0-.32-1.34,2.58,2.58,0,0,0-.89-1,2.5,2.5,0,0,0-1.38-.37h-1.06a2.6,2.6,0,0,0-1.87.69,2.76,2.76,0,0,0-.81,1.91v0.57a15.72,15.72,0,0,0-2.11-1.62,14.28,14.28,0,0,0-3.81-1.62,16.88,16.88,0,0,0-4.38-.57A15.74,15.74,0,0,0,481.81,24a15.07,15.07,0,0,0-5.19,3.69,17.42,17.42,0,0,0-3.41,5.56A18.61,18.61,0,0,0,472,40a18,18,0,0,0,1.26,6.74,17.14,17.14,0,0,0,8.56,9.17,15.36,15.36,0,0,0,6.49,1.38,15.65,15.65,0,0,0,7.87-2,11.52,11.52,0,0,0,2-1.46v3.08a11.84,11.84,0,0,1-.24,3.33,9.05,9.05,0,0,1-5.36,5.11,11.33,11.33,0,0,1-3.73.65,10.36,10.36,0,0,1-2.19-.24,22.16,22.16,0,0,1-2.27-.89c-0.7-.27-1.16-0.46-1.38-0.57a2,2,0,0,0-2.76,1l-0.08.08a0.46,0.46,0,0,1-.16.24q-0.16.24-.41,0.57l-0.49.81a2.23,2.23,0,0,0-.4,1.14,2.57,2.57,0,0,0,1.46,2.19,26,26,0,0,0,4.06,1.7,16.25,16.25,0,0,0,4.79.65,18.43,18.43,0,0,0,6.57-1.14,14.25,14.25,0,0,0,5.27-3.57,17.36,17.36,0,0,0,1.7-2.15,9,9,0,0,0,1.14-2.47q0.4-1.38.69-2.19a11.14,11.14,0,0,0,.4-2.68c0.08-1.25.14-2.06,0.16-2.44s0-1.31,0-2.8,0-2.37,0-2.64V25.94Zm-37.92,8a17.36,17.36,0,0,0-3.41-5.56,16.08,16.08,0,0,0-5.19-3.77,16,16,0,0,0-13,0,16.52,16.52,0,0,0-5.23,3.77,17,17,0,0,0-3.45,5.56,19.23,19.23,0,0,0-1.22,5.92l0.08,14.61a2.57,2.57,0,0,0,.69,1.91,2.46,2.46,0,0,0,1.83.69h1.3a2.39,2.39,0,0,0,2.6-2.6V39.81a12,12,0,0,1,.65-3.49,11.76,11.76,0,0,1,2.11-3.49A8.53,8.53,0,0,1,448,30.48a8.67,8.67,0,0,1,3.94-.89,9.19,9.19,0,0,1,4,.89A9.35,9.35,0,0,1,459,32.8a10.7,10.7,0,0,1,2.07,3.53,10.59,10.59,0,0,1,.73,3.49l-0.08,14.61a2.49,2.49,0,0,0,.73,1.91,2.61,2.61,0,0,0,1.87.69h1.3a2.39,2.39,0,0,0,2.6-2.6l0.08-14.61h-0.08A16.55,16.55,0,0,0,467,33.89M429.31,19.45a3.21,3.21,0,0,0,1-2.35,3.58,3.58,0,0,0-1-2.52,3.3,3.3,0,0,0-2.43-1,3.46,3.46,0,0,0-3.49,3.49,3.27,3.27,0,0,0,1,2.39,3.36,3.36,0,0,0,2.48,1,3.18,3.18,0,0,0,2.43-1.05m-3.08,4a2.72,2.72,0,0,0-1.95.69,2.5,2.5,0,0,0-.73,1.91V53.93a2.53,2.53,0,0,0,.73,1.87,2.63,2.63,0,0,0,1.95.73h1.22a2.5,2.5,0,0,0,2.6-2.6V26a2.5,2.5,0,0,0-.73-1.91,2.61,2.61,0,0,0-1.87-.69h-1.22Zm-7.65,5.31a2.42,2.42,0,0,0,.77-1.91v-1a3,3,0,0,0-.2-1.14,2.21,2.21,0,0,0-.57-0.81,3,3,0,0,0-.85-0.53,3,3,0,0,0-1.14-.2h-3.89v-7a2.39,2.39,0,0,0-2.6-2.6h-1.3a2.61,2.61,0,0,0-1.87.69,2.5,2.5,0,0,0-.73,1.91v2.19q0,1.3,0,2.56c0,0.84,0,1.58,0,2.23h-2.76a2.62,2.62,0,0,0-1.78.57,2.71,2.71,0,0,0-.41.32,1,1,0,0,0-.24.41,3.61,3.61,0,0,0-.12.45c0,0.14-.05.31-0.08,0.53a4,4,0,0,0,0,.45v1q0,2.6,2.68,2.6h2.76V47q0,9.82,8.93,9.82a9,9,0,0,0,2.52-.24,1.64,1.64,0,0,0,.65-0.45l0.4-.49a1.54,1.54,0,0,0,.24-0.69,5,5,0,0,0,.08-0.65V52.8a3,3,0,0,0-.28-1.42,1.55,1.55,0,0,0-1-.73,4.7,4.7,0,0,0-1.18-.2H415a2.76,2.76,0,0,1-1.79-.81q-0.57-.73-0.57-3.49V29.43h3.89a2.86,2.86,0,0,0,2-.69m-41.37,2.39a8.45,8.45,0,0,1,5.8-2.47,9,9,0,0,1,5.8,2,9.82,9.82,0,0,1,3.49,5.27H374.37a11.53,11.53,0,0,1,2.84-4.79m19.31-1.22a16.42,16.42,0,0,0-7-6.33,14,14,0,0,0-6.21-1.34,15.64,15.64,0,0,0-6.21,1.34,16.32,16.32,0,0,0-8.68,9.66,17.63,17.63,0,0,0,.08,13,14.81,14.81,0,0,0,9.58,9.33v0.08A17,17,0,0,0,384,56.86a15.07,15.07,0,0,0,6.33-1.3A16.3,16.3,0,0,0,396,51.91a2.12,2.12,0,0,0,.73-2,2.07,2.07,0,0,0-.49-0.89l-1-1.54-0.16-.16a2.72,2.72,0,0,0-1-.57,1.89,1.89,0,0,0-2.19.49,13.45,13.45,0,0,1-3.81,2.43,19.75,19.75,0,0,1-2.19.65l-1.79.16a11.87,11.87,0,0,1-4.3-.81l-0.16-.08a10.1,10.1,0,0,1-3.65-2.88,9.88,9.88,0,0,1-2-4.34h21.18q3.89,0,3.9-3.33a17,17,0,0,0-2.6-9.09m-54.29,1.22a8.45,8.45,0,0,1,5.8-2.47,9,9,0,0,1,5.8,2,9.82,9.82,0,0,1,3.49,5.27H339.39a11.53,11.53,0,0,1,2.84-4.79m19.31-1.22a16.43,16.43,0,0,0-7-6.33,14,14,0,0,0-6.21-1.34,15.64,15.64,0,0,0-6.21,1.34,16.32,16.32,0,0,0-8.68,9.66,17.63,17.63,0,0,0,.08,13,14.81,14.81,0,0,0,9.58,9.33v0.08A17,17,0,0,0,349,56.86a15.07,15.07,0,0,0,6.33-1.3,16.3,16.3,0,0,0,5.68-3.65,2.12,2.12,0,0,0,.73-2A2.07,2.07,0,0,0,361.3,49l-1-1.54-0.16-.16a2.72,2.72,0,0,0-1-.57,1.89,1.89,0,0,0-2.19.49,13.45,13.45,0,0,1-3.81,2.43,19.75,19.75,0,0,1-2.19.65l-1.79.16a11.87,11.87,0,0,1-4.3-.81l-0.16-.08a10.1,10.1,0,0,1-3.65-2.88,9.88,9.88,0,0,1-2-4.34h21.18q3.89,0,3.9-3.33a17,17,0,0,0-2.6-9.09m-47.62-4c0-.05,0-0.3-0.08-0.73s-0.08-.68-0.08-0.73a2.11,2.11,0,0,0-2.11-1.22H310.1a2.16,2.16,0,0,0-1.78.81,3.27,3.27,0,0,0-.65,2.11V54a2.39,2.39,0,0,0,.73,1.83,2.61,2.61,0,0,0,1.87.69h1.3a2.5,2.5,0,0,0,2.6-2.6V38a8.79,8.79,0,0,1,1.26-4.67,8.06,8.06,0,0,1,3.25-3.08,13.64,13.64,0,0,1,4.42-1.34,10.62,10.62,0,0,1,4.71.41,1.91,1.91,0,0,0,2.19-.41,3.06,3.06,0,0,0,.57-1,0.33,0.33,0,0,0,.08-0.24L331,25.94a3,3,0,0,0,0-1,2.21,2.21,0,0,0-1.54-1.54q-9.17-2.27-15.5,2.52M277.73,49.47a14.65,14.65,0,0,1-5.36-5.84,17.55,17.55,0,0,1-1.87-8.11,16.34,16.34,0,0,1,4.22-11.44,14.14,14.14,0,0,1,11-4.62,13.86,13.86,0,0,1,10.71,4.62,1.78,1.78,0,0,0,2.6.32l1.87-1.06a2.1,2.1,0,0,0,.93-1.5,2,2,0,0,0-.53-1.66,20.27,20.27,0,0,0-15.58-6.82,21.28,21.28,0,0,0-15.74,6.29,21.58,21.58,0,0,0-6.25,15.86,21.71,21.71,0,0,0,6.25,15.9,21.2,21.2,0,0,0,15.74,6.33,21.68,21.68,0,0,0,16.47-7,2.37,2.37,0,0,0,.49-1.46V36.24a2.12,2.12,0,0,0-.57-1.5,1.91,1.91,0,0,0-1.46-.61H283.89a1.94,1.94,0,0,0-1.42.61,2,2,0,0,0-.61,1.5v1.95a2.08,2.08,0,0,0,2,2h12.17V47.6a14.22,14.22,0,0,1-3,2.15,16.39,16.39,0,0,1-3.61,1.42,15.22,15.22,0,0,1-11.69-1.7" transform="translate(0 0)"/><path class="cls-2" d="M250.84,46.39a10.15,10.15,0,0,1-3.08,2.35,8.91,8.91,0,0,1-3.73.81,8.37,8.37,0,0,1-3.65-.81,10.33,10.33,0,0,1-3.21-2.35A11.44,11.44,0,0,1,235,42.94a11.59,11.59,0,0,1,0-8.52A11,11,0,0,1,237.2,31a9.88,9.88,0,0,1,3.16-2.35,7.75,7.75,0,0,1,3.65-.89,8.24,8.24,0,0,1,3.73.89A10.19,10.19,0,0,1,250.84,31a11.34,11.34,0,0,1,0,15.42m4.87-20a15.84,15.84,0,0,0-11.44-5,18.11,18.11,0,0,0-5.11.65,13.57,13.57,0,0,0-3.65,1.78q-0.65.49-1.14,0.89V24.64a2.24,2.24,0,0,0-.69-1.7,2.45,2.45,0,0,0-1.75-.65h-1.46a2.55,2.55,0,0,0-1.83.65,2.33,2.33,0,0,0-.69,1.78V68.95a3.72,3.72,0,0,0,.24,1.46,2,2,0,0,0,1.95,1.05h1.95a2.14,2.14,0,0,0,2.11-1.14,3.5,3.5,0,0,0,.24-1.38v-17q0.89,0.89,1.87,1.7a13.31,13.31,0,0,0,8,2.35,14.44,14.44,0,0,0,6.25-1.38,15.44,15.44,0,0,0,5.11-3.73,18.33,18.33,0,0,0,3.37-5.52,18.08,18.08,0,0,0,1.26-6.74,17.77,17.77,0,0,0-1.26-6.7,18.49,18.49,0,0,0-3.37-5.48M222.35,24.6a2.58,2.58,0,0,0-1.91-.69h-1.3a2.61,2.61,0,0,0-1.87.69,2.5,2.5,0,0,0-.73,1.91l0.08,14.12a11.35,11.35,0,0,1-.73,3.57,11.8,11.8,0,0,1-2,3.49A11.25,11.25,0,0,1,210.7,50a10,10,0,0,1-4,.81,9.41,9.41,0,0,1-3.94-.81,9.59,9.59,0,0,1-3.16-2.39,12.63,12.63,0,0,1-2.11-3.45,12.91,12.91,0,0,1-.65-3.57V26.51a2.39,2.39,0,0,0-2.6-2.6h-1.3a2.47,2.47,0,0,0-1.83.69,2.57,2.57,0,0,0-.69,1.91l-0.08,14.12a19.22,19.22,0,0,0,1.22,5.92,16.38,16.38,0,0,0,3.45,5.6,16.8,16.8,0,0,0,5.23,3.73,16,16,0,0,0,13,0,16,16,0,0,0,5.19-3.77,17.34,17.34,0,0,0,3.41-5.56A19.3,19.3,0,0,0,223,40.63h0.08L223,26.51a2.58,2.58,0,0,0-.69-1.91M173.85,50a10.75,10.75,0,0,1-8.2,0,11.4,11.4,0,0,1-3.29-2.35,10.07,10.07,0,0,1-2.19-3.49,12,12,0,0,1-.77-4.3,11.67,11.67,0,0,1,.77-4.26,10.47,10.47,0,0,1,2.15-3.45,10.59,10.59,0,0,1,3.33-2.35,9.85,9.85,0,0,1,8.2,0,10.6,10.6,0,0,1,3.33,2.35,11,11,0,0,1,2.19,3.49,11.59,11.59,0,0,1,0,8.52,11,11,0,0,1-2.19,3.49A10.6,10.6,0,0,1,173.85,50m7.91-22.36A15.67,15.67,0,0,0,176.4,24a16.82,16.82,0,0,0-6.7-1.34A16.51,16.51,0,0,0,163.05,24a15.88,15.88,0,0,0-5.36,3.77,18.21,18.21,0,0,0-3.49,5.48,17.25,17.25,0,0,0-1.3,6.69,17.56,17.56,0,0,0,1.3,6.74,18.05,18.05,0,0,0,3.49,5.52,17,17,0,0,0,5.36,3.73,16.73,16.73,0,0,0,13.31,0,15.87,15.87,0,0,0,5.36-3.73,17.35,17.35,0,0,0,3.57-5.52,17.79,17.79,0,0,0-3.53-18.95m-47.08-1.75c0-.05,0-0.3-0.08-0.73s-0.08-.68-0.08-0.73a2.11,2.11,0,0,0-2.11-1.22h-1.54a2.16,2.16,0,0,0-1.78.81,3.27,3.27,0,0,0-.65,2.11V54a2.39,2.39,0,0,0,.73,1.83,2.61,2.61,0,0,0,1.87.69h1.3a2.5,2.5,0,0,0,2.6-2.6V38a8.79,8.79,0,0,1,1.26-4.67,8.06,8.06,0,0,1,3.25-3.08,13.64,13.64,0,0,1,4.42-1.34,10.62,10.62,0,0,1,4.71.41,1.91,1.91,0,0,0,2.19-.41,3.06,3.06,0,0,0,.57-1,0.33,0.33,0,0,0,.08-0.24l0.32-1.78a3,3,0,0,0,0-1,2.21,2.21,0,0,0-1.54-1.54q-9.17-2.27-15.5,2.52M98.49,49.47a14.65,14.65,0,0,1-5.36-5.84,17.55,17.55,0,0,1-1.87-8.11,16.35,16.35,0,0,1,4.22-11.44,14.14,14.14,0,0,1,11-4.62,13.86,13.86,0,0,1,10.71,4.62,1.78,1.78,0,0,0,2.6.32l1.87-1.06a2.1,2.1,0,0,0,.93-1.5,2,2,0,0,0-.53-1.66,20.27,20.27,0,0,0-15.58-6.82A21.28,21.28,0,0,0,90.7,19.65a21.58,21.58,0,0,0-6.25,15.86,21.71,21.71,0,0,0,6.25,15.9,21.2,21.2,0,0,0,15.74,6.33,21.68,21.68,0,0,0,16.47-7,2.37,2.37,0,0,0,.49-1.46V36.24a2.12,2.12,0,0,0-.57-1.5,1.91,1.91,0,0,0-1.46-.61H104.65a1.94,1.94,0,0,0-1.42.61,2,2,0,0,0-.61,1.5v1.95a2.08,2.08,0,0,0,2,2h12.17V47.6a14.22,14.22,0,0,1-3,2.15,16.39,16.39,0,0,1-3.61,1.42,15.22,15.22,0,0,1-11.69-1.7" transform="translate(0 0)"/><path class="cls-1" d="M35.54,71.09A35.54,35.54,0,1,0,0,35.54,35.54,35.54,0,0,0,35.54,71.09" transform="translate(0 0)"/><path class="cls-3" d="M56.63,49.22V31.5c0-4.43-2.66-4.43-2.66-4.43l-1.61,1.16h0l-9.31,6.7h0L36,40h0l-0.5.36L35,40h0l-4.28-3.09-0.25-.18L28,34.93h0L18.7,28.22h0l-1.59-1.14s-2.66,0-2.66,4.43V49.22s0,3.84,3.59,4.37H53c3.58-.53,3.59-4.37,3.59-4.37" transform="translate(0 0)"/><path class="cls-3" d="M25.93,18.53a3,3,0,1,0-2.95,3,2.95,2.95,0,0,0,2.95-3M28,32V27.83h0A5.06,5.06,0,0,0,27.64,26a5.34,5.34,0,0,0-1-1.71A5,5,0,0,0,25,23.14a4.92,4.92,0,0,0-4,0,5,5,0,0,0-2.3,2.11ZM38.38,15.13a3,3,0,1,0-3,3,3,3,0,0,0,3-3m2.2,18.63V24.44h0a5.09,5.09,0,0,0-.37-1.82,5.37,5.37,0,0,0-1-1.71,5,5,0,0,0-1.6-1.16,4.92,4.92,0,0,0-4,0,5.1,5.1,0,0,0-1.61,1.16,5.25,5.25,0,0,0-1.06,1.71,5.9,5.9,0,0,0-.37,1.82v9.31l5,3.62ZM50.82,18.53a3,3,0,1,0-3,3,3,3,0,0,0,3-3m1.55,6.73a5.27,5.27,0,0,0-.69-1,5,5,0,0,0-1.6-1.16,4.91,4.91,0,0,0-4,0,5.1,5.1,0,0,0-1.61,1.16A5.23,5.23,0,0,0,43.43,26a5.94,5.94,0,0,0-.37,1.82V32Z" transform="translate(0 0)"/><rect class="cls-4" width="505" height="72.6"/></svg>